<mxfile host="65bd71144e" pages="4">
    <diagram id="5uAXso9w_izSH2Sz5hrn" name="Modèle de Contexte">
        <mxGraphModel dx="1311" dy="817" grid="1" gridSize="10" guides="1" tooltips="1" connect="1" arrows="1" fold="1" page="1" pageScale="1" pageWidth="827" pageHeight="1169" background="none" math="0" shadow="1">
            <root>
                <mxCell id="0"/>
                <mxCell id="1" parent="0"/>
                <mxCell id="2" value="Application de Gestion &amp;amp; Suivi des Itinéraires" style="whiteSpace=wrap;html=1;labelBackgroundColor=default;" parent="1" vertex="1">
                    <mxGeometry x="270" y="261" width="280" height="200" as="geometry"/>
                </mxCell>
                <object label="Usager de la route" Malade="" id="4">
                    <mxCell style="shape=umlActor;verticalLabelPosition=bottom;verticalAlign=top;html=1;outlineConnect=0;" parent="1" vertex="1">
                        <mxGeometry x="100" y="190" width="30" height="60" as="geometry"/>
                    </mxCell>
                </object>
                <mxCell id="13" value="" style="endArrow=none;html=1;entryX=0.996;entryY=0.31;entryDx=0;entryDy=0;entryPerimeter=0;exitX=0.5;exitY=0.5;exitDx=0;exitDy=0;exitPerimeter=0;startArrow=none;" parent="1" source="f1Rh8C84F_ttffj4ga7b-51" target="2" edge="1">
                    <mxGeometry width="50" height="50" relative="1" as="geometry">
                        <mxPoint x="685" y="250" as="sourcePoint"/>
                        <mxPoint x="578" y="346" as="targetPoint"/>
                    </mxGeometry>
                </mxCell>
                <mxCell id="16" value="" style="endArrow=none;html=1;exitX=0.5;exitY=0.5;exitDx=0;exitDy=0;exitPerimeter=0;entryX=-0.007;entryY=0.335;entryDx=0;entryDy=0;entryPerimeter=0;" parent="1" source="4" target="2" edge="1">
                    <mxGeometry width="50" height="50" relative="1" as="geometry">
                        <mxPoint x="178" y="416" as="sourcePoint"/>
                        <mxPoint x="228" y="366" as="targetPoint"/>
                    </mxGeometry>
                </mxCell>
                <mxCell id="30" value="Système" style="rounded=0;labelBackgroundColor=none;labelBorderColor=none;fontColor=default;whiteSpace=wrap;html=1;" parent="1" vertex="1">
                    <mxGeometry x="460" y="261" width="90" height="30" as="geometry"/>
                </mxCell>
                <mxCell id="kGXK43dnZQ-qQczMrh3j-30" value="Modèle de Contexte" style="text;html=1;align=center;verticalAlign=middle;resizable=0;points=[];autosize=1;strokeColor=none;fillColor=none;fontStyle=1;fontSize=28;" parent="1" vertex="1">
                    <mxGeometry x="269" y="80" width="290" height="50" as="geometry"/>
                </mxCell>
                <object label="Conducteur" Malade="" id="32">
                    <mxCell style="shape=umlActor;verticalLabelPosition=bottom;verticalAlign=top;html=1;outlineConnect=0;" parent="1" vertex="1">
                        <mxGeometry x="80" y="331" width="30" height="60" as="geometry"/>
                    </mxCell>
                </object>
                <mxCell id="33" value="" style="endArrow=none;html=1;exitX=0.5;exitY=0.5;exitDx=0;exitDy=0;exitPerimeter=0;entryX=-0.004;entryY=0.665;entryDx=0;entryDy=0;entryPerimeter=0;" parent="1" source="32" target="2" edge="1">
                    <mxGeometry width="50" height="50" relative="1" as="geometry">
                        <mxPoint x="280" y="430" as="sourcePoint"/>
                        <mxPoint x="330" y="380" as="targetPoint"/>
                    </mxGeometry>
                </mxCell>
                <mxCell id="f1Rh8C84F_ttffj4ga7b-41" value="Organisme de transports" style="shape=umlActor;verticalLabelPosition=bottom;verticalAlign=top;html=1;" parent="1" vertex="1">
                    <mxGeometry x="80" y="450" width="30" height="60" as="geometry"/>
                </mxCell>
                <mxCell id="f1Rh8C84F_ttffj4ga7b-42" value="" style="endArrow=none;html=1;entryX=0.743;entryY=0.121;entryDx=0;entryDy=0;entryPerimeter=0;exitX=0.246;exitY=0.126;exitDx=0;exitDy=0;exitPerimeter=0;" parent="1" source="f1Rh8C84F_ttffj4ga7b-41" target="f1Rh8C84F_ttffj4ga7b-41" edge="1">
                    <mxGeometry width="50" height="50" relative="1" as="geometry">
                        <mxPoint x="650" y="500" as="sourcePoint"/>
                        <mxPoint x="700" y="450" as="targetPoint"/>
                    </mxGeometry>
                </mxCell>
                <mxCell id="f1Rh8C84F_ttffj4ga7b-43" value="" style="endArrow=none;html=1;entryX=0.004;entryY=0.84;entryDx=0;entryDy=0;entryPerimeter=0;exitX=0.5;exitY=0.5;exitDx=0;exitDy=0;exitPerimeter=0;" parent="1" source="f1Rh8C84F_ttffj4ga7b-41" target="2" edge="1">
                    <mxGeometry width="50" height="50" relative="1" as="geometry">
                        <mxPoint x="190" y="500" as="sourcePoint"/>
                        <mxPoint x="240" y="450" as="targetPoint"/>
                    </mxGeometry>
                </mxCell>
                <mxCell id="f1Rh8C84F_ttffj4ga7b-44" value="Plateforme" style="shape=umlActor;verticalLabelPosition=bottom;verticalAlign=top;html=1;" parent="1" vertex="1">
                    <mxGeometry x="660" y="430" width="30" height="60" as="geometry"/>
                </mxCell>
                <mxCell id="f1Rh8C84F_ttffj4ga7b-45" value="" style="endArrow=none;html=1;entryX=0.743;entryY=0.121;entryDx=0;entryDy=0;entryPerimeter=0;exitX=0.246;exitY=0.126;exitDx=0;exitDy=0;exitPerimeter=0;" parent="1" source="f1Rh8C84F_ttffj4ga7b-44" target="f1Rh8C84F_ttffj4ga7b-44" edge="1">
                    <mxGeometry width="50" height="50" relative="1" as="geometry">
                        <mxPoint x="1230" y="540" as="sourcePoint"/>
                        <mxPoint x="1280" y="490" as="targetPoint"/>
                    </mxGeometry>
                </mxCell>
                <mxCell id="f1Rh8C84F_ttffj4ga7b-46" value="" style="endArrow=none;html=1;entryX=0.5;entryY=0.5;entryDx=0;entryDy=0;entryPerimeter=0;exitX=1.004;exitY=0.87;exitDx=0;exitDy=0;exitPerimeter=0;" parent="1" source="2" target="f1Rh8C84F_ttffj4ga7b-44" edge="1">
                    <mxGeometry width="50" height="50" relative="1" as="geometry">
                        <mxPoint x="550" y="540" as="sourcePoint"/>
                        <mxPoint x="600" y="490" as="targetPoint"/>
                    </mxGeometry>
                </mxCell>
                <mxCell id="f1Rh8C84F_ttffj4ga7b-51" value="Gouvernement" style="shape=umlActor;verticalLabelPosition=bottom;verticalAlign=top;html=1;" parent="1" vertex="1">
                    <mxGeometry x="670" y="246" width="30" height="60" as="geometry"/>
                </mxCell>
                <mxCell id="f1Rh8C84F_ttffj4ga7b-52" value="" style="endArrow=none;html=1;entryX=0.743;entryY=0.121;entryDx=0;entryDy=0;entryPerimeter=0;exitX=0.246;exitY=0.126;exitDx=0;exitDy=0;exitPerimeter=0;" parent="1" source="f1Rh8C84F_ttffj4ga7b-51" target="f1Rh8C84F_ttffj4ga7b-51" edge="1">
                    <mxGeometry width="50" height="50" relative="1" as="geometry">
                        <mxPoint x="1240" y="270" as="sourcePoint"/>
                        <mxPoint x="1290" y="220" as="targetPoint"/>
                    </mxGeometry>
                </mxCell>
            </root>
        </mxGraphModel>
    </diagram>
    <diagram id="RYnT7qDGrqwzfNb_8twP" name="Modèle de Package">
        <mxGraphModel dx="2208" dy="833" grid="1" gridSize="10" guides="1" tooltips="1" connect="1" arrows="1" fold="1" page="1" pageScale="1" pageWidth="827" pageHeight="1169" math="0" shadow="0">
            <root>
                <mxCell id="0"/>
                <mxCell id="1" parent="0"/>
                <mxCell id="qxCXvG44vOlkuHNnDq4L-10" value="Modèle de Pakage" style="text;html=1;align=center;verticalAlign=middle;resizable=0;points=[];autosize=1;strokeColor=none;fillColor=none;fontStyle=1;fontSize=31;" parent="1" vertex="1">
                    <mxGeometry x="275" y="70" width="290" height="50" as="geometry"/>
                </mxCell>
                <mxCell id="gtYE5vX-12w1rRcSCnMm-1" value="" style="whiteSpace=wrap;html=1;labelBackgroundColor=default;" parent="1" vertex="1">
                    <mxGeometry x="190" y="860" width="540" height="550" as="geometry"/>
                </mxCell>
                <object label="Usager de la route" Malade="" id="gtYE5vX-12w1rRcSCnMm-2">
                    <mxCell style="shape=umlActor;verticalLabelPosition=bottom;verticalAlign=top;html=1;outlineConnect=0;" parent="1" vertex="1">
                        <mxGeometry x="90" y="680" width="30" height="60" as="geometry"/>
                    </mxCell>
                </object>
                <mxCell id="gtYE5vX-12w1rRcSCnMm-3" value="" style="endArrow=none;html=1;entryX=0.996;entryY=0.31;entryDx=0;entryDy=0;entryPerimeter=0;exitX=0.5;exitY=0.5;exitDx=0;exitDy=0;exitPerimeter=0;startArrow=none;" parent="1" source="gtYE5vX-12w1rRcSCnMm-14" target="gtYE5vX-12w1rRcSCnMm-1" edge="1">
                    <mxGeometry width="50" height="50" relative="1" as="geometry">
                        <mxPoint x="675" y="740" as="sourcePoint"/>
                        <mxPoint x="568" y="836" as="targetPoint"/>
                    </mxGeometry>
                </mxCell>
                <mxCell id="gtYE5vX-12w1rRcSCnMm-4" value="" style="endArrow=none;html=1;exitX=0.5;exitY=0.5;exitDx=0;exitDy=0;exitPerimeter=0;entryX=-0.007;entryY=0.335;entryDx=0;entryDy=0;entryPerimeter=0;" parent="1" source="gtYE5vX-12w1rRcSCnMm-2" target="gtYE5vX-12w1rRcSCnMm-1" edge="1">
                    <mxGeometry width="50" height="50" relative="1" as="geometry">
                        <mxPoint x="168" y="906" as="sourcePoint"/>
                        <mxPoint x="218" y="856" as="targetPoint"/>
                    </mxGeometry>
                </mxCell>
                <object label="Conducteur" Malade="" id="gtYE5vX-12w1rRcSCnMm-6">
                    <mxCell style="shape=umlActor;verticalLabelPosition=bottom;verticalAlign=top;html=1;outlineConnect=0;" parent="1" vertex="1">
                        <mxGeometry x="70" y="821" width="30" height="60" as="geometry"/>
                    </mxCell>
                </object>
                <mxCell id="gtYE5vX-12w1rRcSCnMm-7" value="" style="endArrow=none;html=1;exitX=0.5;exitY=0.5;exitDx=0;exitDy=0;exitPerimeter=0;entryX=-0.004;entryY=0.665;entryDx=0;entryDy=0;entryPerimeter=0;" parent="1" source="gtYE5vX-12w1rRcSCnMm-6" target="gtYE5vX-12w1rRcSCnMm-1" edge="1">
                    <mxGeometry width="50" height="50" relative="1" as="geometry">
                        <mxPoint x="270" y="920" as="sourcePoint"/>
                        <mxPoint x="320" y="870" as="targetPoint"/>
                    </mxGeometry>
                </mxCell>
                <mxCell id="gtYE5vX-12w1rRcSCnMm-8" value="Organisme de transports" style="shape=umlActor;verticalLabelPosition=bottom;verticalAlign=top;html=1;" parent="1" vertex="1">
                    <mxGeometry x="50" y="1020" width="30" height="60" as="geometry"/>
                </mxCell>
                <mxCell id="gtYE5vX-12w1rRcSCnMm-9" value="" style="endArrow=none;html=1;entryX=0.743;entryY=0.121;entryDx=0;entryDy=0;entryPerimeter=0;exitX=0.246;exitY=0.126;exitDx=0;exitDy=0;exitPerimeter=0;" parent="1" source="gtYE5vX-12w1rRcSCnMm-8" target="gtYE5vX-12w1rRcSCnMm-8" edge="1">
                    <mxGeometry width="50" height="50" relative="1" as="geometry">
                        <mxPoint x="640" y="990" as="sourcePoint"/>
                        <mxPoint x="690" y="940" as="targetPoint"/>
                    </mxGeometry>
                </mxCell>
                <mxCell id="gtYE5vX-12w1rRcSCnMm-10" value="" style="endArrow=none;html=1;entryX=0.004;entryY=0.84;entryDx=0;entryDy=0;entryPerimeter=0;exitX=0.5;exitY=0.5;exitDx=0;exitDy=0;exitPerimeter=0;" parent="1" source="gtYE5vX-12w1rRcSCnMm-8" target="gtYE5vX-12w1rRcSCnMm-1" edge="1">
                    <mxGeometry width="50" height="50" relative="1" as="geometry">
                        <mxPoint x="180" y="990" as="sourcePoint"/>
                        <mxPoint x="230" y="940" as="targetPoint"/>
                    </mxGeometry>
                </mxCell>
                <mxCell id="gtYE5vX-12w1rRcSCnMm-11" value="Plateforme" style="shape=umlActor;verticalLabelPosition=bottom;verticalAlign=top;html=1;" parent="1" vertex="1">
                    <mxGeometry x="850" y="1062" width="30" height="60" as="geometry"/>
                </mxCell>
                <mxCell id="gtYE5vX-12w1rRcSCnMm-12" value="" style="endArrow=none;html=1;entryX=0.743;entryY=0.121;entryDx=0;entryDy=0;entryPerimeter=0;exitX=0.246;exitY=0.126;exitDx=0;exitDy=0;exitPerimeter=0;" parent="1" source="gtYE5vX-12w1rRcSCnMm-11" target="gtYE5vX-12w1rRcSCnMm-11" edge="1">
                    <mxGeometry width="50" height="50" relative="1" as="geometry">
                        <mxPoint x="1220" y="1030" as="sourcePoint"/>
                        <mxPoint x="1270" y="980" as="targetPoint"/>
                    </mxGeometry>
                </mxCell>
                <mxCell id="gtYE5vX-12w1rRcSCnMm-13" value="" style="endArrow=none;html=1;entryX=0.5;entryY=0.5;entryDx=0;entryDy=0;entryPerimeter=0;exitX=1.004;exitY=0.87;exitDx=0;exitDy=0;exitPerimeter=0;" parent="1" source="gtYE5vX-12w1rRcSCnMm-1" target="gtYE5vX-12w1rRcSCnMm-11" edge="1">
                    <mxGeometry width="50" height="50" relative="1" as="geometry">
                        <mxPoint x="540" y="1030" as="sourcePoint"/>
                        <mxPoint x="590" y="980" as="targetPoint"/>
                    </mxGeometry>
                </mxCell>
                <mxCell id="gtYE5vX-12w1rRcSCnMm-14" value="Gouvernement" style="shape=umlActor;verticalLabelPosition=bottom;verticalAlign=top;html=1;" parent="1" vertex="1">
                    <mxGeometry x="780" y="740" width="30" height="60" as="geometry"/>
                </mxCell>
                <mxCell id="gtYE5vX-12w1rRcSCnMm-15" value="" style="endArrow=none;html=1;entryX=0.743;entryY=0.121;entryDx=0;entryDy=0;entryPerimeter=0;exitX=0.246;exitY=0.126;exitDx=0;exitDy=0;exitPerimeter=0;" parent="1" source="gtYE5vX-12w1rRcSCnMm-14" target="gtYE5vX-12w1rRcSCnMm-14" edge="1">
                    <mxGeometry width="50" height="50" relative="1" as="geometry">
                        <mxPoint x="1230" y="760" as="sourcePoint"/>
                        <mxPoint x="1280" y="710" as="targetPoint"/>
                    </mxGeometry>
                </mxCell>
                <mxCell id="qxCXvG44vOlkuHNnDq4L-8" value="Gestion des Itinéraires&lt;br&gt;&lt;br&gt;&lt;div style=&quot;text-align: left;&quot;&gt;&lt;span style=&quot;background-color: initial;&quot;&gt;- &lt;span style=&quot;font-weight: normal;&quot;&gt;Partager&lt;/span&gt;&lt;/span&gt;&lt;/div&gt;&lt;div style=&quot;text-align: left;&quot;&gt;&lt;span style=&quot;background-color: initial; font-weight: normal;&quot;&gt;- Calcul intelligent&lt;/span&gt;&lt;/div&gt;&lt;div style=&quot;text-align: left;&quot;&gt;&lt;span style=&quot;background-color: initial; font-weight: normal;&quot;&gt;- Calcul en temps réel&lt;/span&gt;&lt;/div&gt;&lt;div style=&quot;text-align: left;&quot;&gt;&lt;span style=&quot;background-color: initial; font-weight: normal;&quot;&gt;- Gestion des réservations&lt;/span&gt;&lt;/div&gt;&lt;div style=&quot;text-align: left;&quot;&gt;&lt;span style=&quot;background-color: initial; font-weight: normal;&quot;&gt;- Calcul des coûts de déplacement&amp;nbsp;&lt;/span&gt;&lt;/div&gt;" style="shape=folder;fontStyle=1;spacingTop=10;tabWidth=40;tabHeight=14;tabPosition=left;html=1;" parent="1" vertex="1">
                    <mxGeometry x="250" y="900" width="415" height="120" as="geometry"/>
                </mxCell>
                <mxCell id="qxCXvG44vOlkuHNnDq4L-6" value="&lt;span style=&quot;background-color: rgb(24, 20, 29);&quot;&gt;&lt;b&gt;Application de Gestion &amp;amp; Suivi des itinéraires&lt;/b&gt;&lt;/span&gt;" style="rounded=0;labelBackgroundColor=none;labelBorderColor=none;fontColor=default;whiteSpace=wrap;html=1;" parent="1" vertex="1">
                    <mxGeometry x="450" y="860" width="280" height="35" as="geometry"/>
                </mxCell>
                <mxCell id="eADEfC74vdO8US71GXJ_-1" value="Gestion des Statisitiques Générales de mobilité et IA&lt;br&gt;&lt;br&gt;&lt;div style=&quot;text-align: left;&quot;&gt;&lt;span style=&quot;background-color: initial; white-space-collapse: preserve;&quot;&gt;&#9;&lt;/span&gt;&lt;span style=&quot;font-weight: normal;&quot;&gt;&lt;span style=&quot;background-color: initial;&quot;&gt;- Mise sur pied des statistiques de mobilités&lt;/span&gt;&lt;br&gt;&lt;/span&gt;&lt;/div&gt;&lt;div style=&quot;text-align: left;&quot;&gt;&lt;span style=&quot;font-weight: normal;&quot;&gt;&lt;span style=&quot;white-space: pre;&quot;&gt;&#9;&lt;/span&gt;- Prédictions&amp;nbsp;&lt;/span&gt;&lt;br&gt;&lt;/div&gt;" style="shape=folder;fontStyle=1;spacingTop=10;tabWidth=40;tabHeight=14;tabPosition=left;html=1;align=center;" parent="1" vertex="1">
                    <mxGeometry x="250" y="1040" width="415" height="104" as="geometry"/>
                </mxCell>
                <mxCell id="qxCXvG44vOlkuHNnDq4L-7" value="Gestion du client&lt;br&gt;&lt;br&gt;&lt;div style=&quot;text-align: left;&quot;&gt;&lt;span style=&quot;font-weight: normal;&quot;&gt;&lt;span style=&quot;white-space: pre;&quot;&gt;&#9;&lt;/span&gt;- Authentification du client&lt;br&gt;&lt;/span&gt;&lt;/div&gt;&lt;div style=&quot;text-align: left;&quot;&gt;&lt;span style=&quot;font-weight: normal;&quot;&gt;&lt;span style=&quot;white-space: pre;&quot;&gt;&#9;&lt;/span&gt;- Gestion des avis du client&lt;br&gt;&lt;/span&gt;&lt;/div&gt;&lt;div style=&quot;text-align: left;&quot;&gt;&lt;span style=&quot;font-weight: normal;&quot;&gt;&lt;span style=&quot;white-space: pre;&quot;&gt;&#9;&lt;/span&gt;- Gestion de la mobilité du client (stattisitiques, habitudes, suggestions)&lt;/span&gt;&lt;br&gt;&lt;/div&gt;&lt;div style=&quot;text-align: left;&quot;&gt;&lt;span style=&quot;font-weight: normal;&quot;&gt;&lt;span style=&quot;white-space: pre;&quot;&gt;&#9;&lt;/span&gt;- Gestion des réservations du client&lt;br&gt;&lt;/span&gt;&lt;/div&gt;" style="shape=folder;fontStyle=1;spacingTop=10;tabWidth=40;tabHeight=14;tabPosition=left;html=1;align=center;" parent="1" vertex="1">
                    <mxGeometry x="250" y="1150" width="420" height="120" as="geometry"/>
                </mxCell>
                <mxCell id="9tJ6mBic0PMFHxu2odd8-2" value="IHM&lt;br&gt;&lt;br&gt;&lt;div style=&quot;text-align: left;&quot;&gt;&lt;span style=&quot;font-weight: normal;&quot;&gt;&lt;span style=&quot;white-space: pre;&quot;&gt;&#9;&lt;/span&gt;- Représentation &amp;amp;Gestion de la carte&lt;br&gt;&lt;/span&gt;&lt;/div&gt;&lt;div style=&quot;text-align: left;&quot;&gt;&lt;span style=&quot;font-weight: normal;&quot;&gt;&lt;span style=&quot;white-space: pre;&quot;&gt;&#9;&lt;/span&gt;- Dessin des entités&lt;br&gt;&lt;/span&gt;&lt;/div&gt;&lt;div style=&quot;text-align: left;&quot;&gt;&lt;span style=&quot;font-weight: normal;&quot;&gt;&lt;span style=&quot;white-space: pre;&quot;&gt;&#9;&lt;/span&gt;&lt;/span&gt;&lt;br&gt;&lt;/div&gt;" style="shape=folder;fontStyle=1;spacingTop=10;tabWidth=40;tabHeight=14;tabPosition=left;html=1;align=center;" parent="1" vertex="1">
                    <mxGeometry x="250" y="1280" width="415" height="104" as="geometry"/>
                </mxCell>
            </root>
        </mxGraphModel>
    </diagram>
    <diagram id="aJ8KIaJLQZvhIeO5zVbw" name="Modèle de Classe">
        <mxGraphModel dx="459" dy="1455" grid="1" gridSize="10" guides="1" tooltips="1" connect="1" arrows="1" fold="1" page="1" pageScale="1" pageWidth="827" pageHeight="1169" math="0" shadow="0">
            <root>
                <mxCell id="0"/>
                <mxCell id="1" parent="0"/>
                <mxCell id="i9ljDMGCnadCEFcPZsQo-1" value="Usager" style="swimlane;fontStyle=1;align=center;verticalAlign=top;childLayout=stackLayout;horizontal=1;startSize=26;horizontalStack=0;resizeParent=1;resizeParentMax=0;resizeLast=0;collapsible=1;marginBottom=0;whiteSpace=wrap;html=1;" parent="1" vertex="1">
                    <mxGeometry x="500" y="354" width="160" height="188" as="geometry"/>
                </mxCell>
                <mxCell id="i9ljDMGCnadCEFcPZsQo-2" value="+ voieFavorie: varchar" style="text;strokeColor=none;fillColor=none;align=left;verticalAlign=top;spacingLeft=4;spacingRight=4;overflow=hidden;rotatable=0;points=[[0,0.5],[1,0.5]];portConstraint=eastwest;whiteSpace=wrap;html=1;" parent="i9ljDMGCnadCEFcPZsQo-1" vertex="1">
                    <mxGeometry y="26" width="160" height="94" as="geometry"/>
                </mxCell>
                <mxCell id="i9ljDMGCnadCEFcPZsQo-3" value="" style="line;strokeWidth=1;fillColor=none;align=left;verticalAlign=middle;spacingTop=-1;spacingLeft=3;spacingRight=3;rotatable=0;labelPosition=right;points=[];portConstraint=eastwest;strokeColor=inherit;" parent="i9ljDMGCnadCEFcPZsQo-1" vertex="1">
                    <mxGeometry y="120" width="160" height="68" as="geometry"/>
                </mxCell>
                <mxCell id="i9ljDMGCnadCEFcPZsQo-5" value="Conducteur" style="swimlane;fontStyle=1;align=center;verticalAlign=top;childLayout=stackLayout;horizontal=1;startSize=26;horizontalStack=0;resizeParent=1;resizeParentMax=0;resizeLast=0;collapsible=1;marginBottom=0;whiteSpace=wrap;html=1;" parent="1" vertex="1">
                    <mxGeometry x="1010" y="457" width="160" height="128" as="geometry"/>
                </mxCell>
                <mxCell id="i9ljDMGCnadCEFcPZsQo-6" value="&lt;div&gt;+ typeAutomobile: String&lt;/div&gt;" style="text;strokeColor=none;fillColor=none;align=left;verticalAlign=top;spacingLeft=4;spacingRight=4;overflow=hidden;rotatable=0;points=[[0,0.5],[1,0.5]];portConstraint=eastwest;whiteSpace=wrap;html=1;" parent="i9ljDMGCnadCEFcPZsQo-5" vertex="1">
                    <mxGeometry y="26" width="160" height="94" as="geometry"/>
                </mxCell>
                <mxCell id="i9ljDMGCnadCEFcPZsQo-7" value="" style="line;strokeWidth=1;fillColor=none;align=left;verticalAlign=middle;spacingTop=-1;spacingLeft=3;spacingRight=3;rotatable=0;labelPosition=right;points=[];portConstraint=eastwest;strokeColor=inherit;" parent="i9ljDMGCnadCEFcPZsQo-5" vertex="1">
                    <mxGeometry y="120" width="160" height="8" as="geometry"/>
                </mxCell>
                <mxCell id="i9ljDMGCnadCEFcPZsQo-40" value="Client" style="swimlane;fontStyle=1;align=center;verticalAlign=top;childLayout=stackLayout;horizontal=1;startSize=26;horizontalStack=0;resizeParent=1;resizeParentMax=0;resizeLast=0;collapsible=1;marginBottom=0;whiteSpace=wrap;html=1;" parent="1" vertex="1">
                    <mxGeometry x="790" y="120" width="240" height="290" as="geometry"/>
                </mxCell>
                <mxCell id="i9ljDMGCnadCEFcPZsQo-41" value="&lt;div&gt;- firstname: String&lt;/div&gt;&lt;div&gt;- lastname: String&lt;/div&gt;&lt;div&gt;- email: String&lt;/div&gt;&lt;div&gt;- password: String&lt;/div&gt;&lt;div&gt;- address: Point&lt;/div&gt;&lt;div&gt;- currentPosition: Point&lt;/div&gt;&lt;div&gt;- weightEvaluation: WeightEvaluation&lt;/div&gt;" style="text;strokeColor=none;fillColor=none;align=left;verticalAlign=top;spacingLeft=4;spacingRight=4;overflow=hidden;rotatable=0;points=[[0,0.5],[1,0.5]];portConstraint=eastwest;whiteSpace=wrap;html=1;" parent="i9ljDMGCnadCEFcPZsQo-40" vertex="1">
                    <mxGeometry y="26" width="240" height="114" as="geometry"/>
                </mxCell>
                <mxCell id="i9ljDMGCnadCEFcPZsQo-42" value="" style="line;strokeWidth=1;fillColor=none;align=left;verticalAlign=middle;spacingTop=-1;spacingLeft=3;spacingRight=3;rotatable=0;labelPosition=right;points=[];portConstraint=eastwest;strokeColor=inherit;" parent="i9ljDMGCnadCEFcPZsQo-40" vertex="1">
                    <mxGeometry y="140" width="240" height="8" as="geometry"/>
                </mxCell>
                <mxCell id="i9ljDMGCnadCEFcPZsQo-43" value="&lt;br&gt;+ move(Point start, Point end, optimal: boolean):&amp;nbsp;&lt;br&gt;+ move(Point destination, optimal: boolean)&lt;div&gt;+ signIn(String firstname, String lastname, String email, String password)&lt;/div&gt;&lt;div&gt;+ logIn(String email, String password)&lt;/div&gt;" style="text;strokeColor=none;fillColor=none;align=left;verticalAlign=top;spacingLeft=4;spacingRight=4;overflow=hidden;rotatable=0;points=[[0,0.5],[1,0.5]];portConstraint=eastwest;whiteSpace=wrap;html=1;" parent="i9ljDMGCnadCEFcPZsQo-40" vertex="1">
                    <mxGeometry y="148" width="240" height="142" as="geometry"/>
                </mxCell>
                <mxCell id="i9ljDMGCnadCEFcPZsQo-44" value="Extends" style="endArrow=block;endSize=16;endFill=0;html=1;rounded=0;entryX=0.581;entryY=-0.029;entryDx=0;entryDy=0;entryPerimeter=0;exitX=0.999;exitY=0.686;exitDx=0;exitDy=0;exitPerimeter=0;" parent="1" source="i9ljDMGCnadCEFcPZsQo-41" target="i9ljDMGCnadCEFcPZsQo-5" edge="1">
                    <mxGeometry width="160" relative="1" as="geometry">
                        <mxPoint x="1030" y="230" as="sourcePoint"/>
                        <mxPoint x="1110" y="229" as="targetPoint"/>
                        <Array as="points">
                            <mxPoint x="1110" y="230"/>
                            <mxPoint x="1110" y="270"/>
                        </Array>
                    </mxGeometry>
                </mxCell>
                <mxCell id="i9ljDMGCnadCEFcPZsQo-45" value="Extends" style="endArrow=block;endSize=16;endFill=0;html=1;rounded=0;exitX=-0.031;exitY=0.894;exitDx=0;exitDy=0;exitPerimeter=0;entryX=0.5;entryY=0;entryDx=0;entryDy=0;" parent="1" source="i9ljDMGCnadCEFcPZsQo-41" target="i9ljDMGCnadCEFcPZsQo-1" edge="1">
                    <mxGeometry width="160" relative="1" as="geometry">
                        <mxPoint x="540" y="189" as="sourcePoint"/>
                        <mxPoint x="480" y="349" as="targetPoint"/>
                        <Array as="points">
                            <mxPoint x="580" y="230"/>
                        </Array>
                    </mxGeometry>
                </mxCell>
                <mxCell id="i9ljDMGCnadCEFcPZsQo-110" value="Modèle de Classe" style="text;html=1;align=center;verticalAlign=middle;resizable=0;points=[];autosize=1;strokeColor=none;fillColor=none;fontStyle=1;fontFamily=Helvetica;fontSize=40;" parent="1" vertex="1">
                    <mxGeometry x="670" y="20" width="360" height="60" as="geometry"/>
                </mxCell>
                <mxCell id="gM1NPIZIfln_9cXg1RTb-5" value="Point" style="swimlane;fontStyle=1;align=center;verticalAlign=top;childLayout=stackLayout;horizontal=1;startSize=26;horizontalStack=0;resizeParent=1;resizeParentMax=0;resizeLast=0;collapsible=1;marginBottom=0;whiteSpace=wrap;html=1;" parent="1" vertex="1">
                    <mxGeometry x="1440" y="319" width="160" height="322" as="geometry"/>
                </mxCell>
                <mxCell id="gM1NPIZIfln_9cXg1RTb-6" value="&lt;div&gt;- name: String&lt;/div&gt;&lt;div&gt;- longitude: float&lt;/div&gt;&lt;div&gt;- latitude: float&lt;/div&gt;&lt;div&gt;- altitude: float&lt;/div&gt;&lt;div&gt;- accuracy: float&lt;/div&gt;&lt;div&gt;- visibility: booleean&lt;/div&gt;&lt;div&gt;- tag: Tag&lt;/div&gt;&lt;div&gt;- description: String&lt;/div&gt;" style="text;strokeColor=none;fillColor=none;align=left;verticalAlign=top;spacingLeft=4;spacingRight=4;overflow=hidden;rotatable=0;points=[[0,0.5],[1,0.5]];portConstraint=eastwest;whiteSpace=wrap;html=1;" parent="gM1NPIZIfln_9cXg1RTb-5" vertex="1">
                    <mxGeometry y="26" width="160" height="134" as="geometry"/>
                </mxCell>
                <mxCell id="gM1NPIZIfln_9cXg1RTb-7" value="" style="line;strokeWidth=1;fillColor=none;align=left;verticalAlign=middle;spacingTop=-1;spacingLeft=3;spacingRight=3;rotatable=0;labelPosition=right;points=[];portConstraint=eastwest;strokeColor=inherit;" parent="gM1NPIZIfln_9cXg1RTb-5" vertex="1">
                    <mxGeometry y="160" width="160" height="60" as="geometry"/>
                </mxCell>
                <mxCell id="gM1NPIZIfln_9cXg1RTb-8" value="- distanceTo(Point other): float&lt;br&gt;- isWithinRadius(Point other, float radius): boolean" style="text;strokeColor=none;fillColor=none;align=left;verticalAlign=top;spacingLeft=4;spacingRight=4;overflow=hidden;rotatable=0;points=[[0,0.5],[1,0.5]];portConstraint=eastwest;whiteSpace=wrap;html=1;" parent="gM1NPIZIfln_9cXg1RTb-5" vertex="1">
                    <mxGeometry y="220" width="160" height="102" as="geometry"/>
                </mxCell>
                <mxCell id="gM1NPIZIfln_9cXg1RTb-9" value="Route" style="swimlane;fontStyle=1;align=center;verticalAlign=top;childLayout=stackLayout;horizontal=1;startSize=26;horizontalStack=0;resizeParent=1;resizeParentMax=0;resizeLast=0;collapsible=1;marginBottom=0;whiteSpace=wrap;html=1;" parent="1" vertex="1">
                    <mxGeometry x="1870" y="220" width="160" height="200" as="geometry"/>
                </mxCell>
                <mxCell id="gM1NPIZIfln_9cXg1RTb-10" value="&lt;div&gt;- edges: List&amp;lt;Edge&amp;gt;&lt;/div&gt;&lt;div&gt;- weight: float&lt;/div&gt;" style="text;strokeColor=none;fillColor=none;align=left;verticalAlign=top;spacingLeft=4;spacingRight=4;overflow=hidden;rotatable=0;points=[[0,0.5],[1,0.5]];portConstraint=eastwest;whiteSpace=wrap;html=1;" parent="gM1NPIZIfln_9cXg1RTb-9" vertex="1">
                    <mxGeometry y="26" width="160" height="94" as="geometry"/>
                </mxCell>
                <mxCell id="gM1NPIZIfln_9cXg1RTb-11" value="" style="line;strokeWidth=1;fillColor=none;align=left;verticalAlign=middle;spacingTop=-1;spacingLeft=3;spacingRight=3;rotatable=0;labelPosition=right;points=[];portConstraint=eastwest;strokeColor=inherit;" parent="gM1NPIZIfln_9cXg1RTb-9" vertex="1">
                    <mxGeometry y="120" width="160" height="8" as="geometry"/>
                </mxCell>
                <mxCell id="gM1NPIZIfln_9cXg1RTb-12" value="&lt;div&gt;+ setTotalWeight()&lt;/div&gt;&lt;div&gt;&lt;br&gt;&lt;/div&gt;" style="text;strokeColor=none;fillColor=none;align=left;verticalAlign=top;spacingLeft=4;spacingRight=4;overflow=hidden;rotatable=0;points=[[0,0.5],[1,0.5]];portConstraint=eastwest;whiteSpace=wrap;html=1;" parent="gM1NPIZIfln_9cXg1RTb-9" vertex="1">
                    <mxGeometry y="128" width="160" height="72" as="geometry"/>
                </mxCell>
                <mxCell id="gM1NPIZIfln_9cXg1RTb-13" value="Edge" style="swimlane;fontStyle=1;align=center;verticalAlign=top;childLayout=stackLayout;horizontal=1;startSize=26;horizontalStack=0;resizeParent=1;resizeParentMax=0;resizeLast=0;collapsible=1;marginBottom=0;whiteSpace=wrap;html=1;" parent="1" vertex="1">
                    <mxGeometry x="1670" y="620" width="340" height="220" as="geometry"/>
                </mxCell>
                <mxCell id="gM1NPIZIfln_9cXg1RTb-14" value="&lt;div&gt;- startPoint: Point&lt;/div&gt;&lt;div&gt;- endPoint: Point&lt;/div&gt;&lt;div&gt;- baseDistance: float&lt;/div&gt;&lt;div&gt;- averageTime: float&lt;/div&gt;&lt;div&gt;- trafficJamLevel: float&lt;/div&gt;&lt;div&gt;- weight: float&lt;/div&gt;&lt;div&gt;- isOneWay: boolean&lt;/div&gt;" style="text;strokeColor=none;fillColor=none;align=left;verticalAlign=top;spacingLeft=4;spacingRight=4;overflow=hidden;rotatable=0;points=[[0,0.5],[1,0.5]];portConstraint=eastwest;whiteSpace=wrap;html=1;" parent="gM1NPIZIfln_9cXg1RTb-13" vertex="1">
                    <mxGeometry y="26" width="340" height="114" as="geometry"/>
                </mxCell>
                <mxCell id="gM1NPIZIfln_9cXg1RTb-15" value="" style="line;strokeWidth=1;fillColor=none;align=left;verticalAlign=middle;spacingTop=-1;spacingLeft=3;spacingRight=3;rotatable=0;labelPosition=right;points=[];portConstraint=eastwest;strokeColor=inherit;" parent="gM1NPIZIfln_9cXg1RTb-13" vertex="1">
                    <mxGeometry y="140" width="340" height="8" as="geometry"/>
                </mxCell>
                <mxCell id="gM1NPIZIfln_9cXg1RTb-16" value="&lt;div&gt;+ setWeight()&lt;/div&gt;&lt;div&gt;+ setBaseDistance()&lt;/div&gt;" style="text;strokeColor=none;fillColor=none;align=left;verticalAlign=top;spacingLeft=4;spacingRight=4;overflow=hidden;rotatable=0;points=[[0,0.5],[1,0.5]];portConstraint=eastwest;whiteSpace=wrap;html=1;" parent="gM1NPIZIfln_9cXg1RTb-13" vertex="1">
                    <mxGeometry y="148" width="340" height="72" as="geometry"/>
                </mxCell>
                <mxCell id="gM1NPIZIfln_9cXg1RTb-17" value="WeightEvaluation" style="swimlane;fontStyle=1;align=center;verticalAlign=top;childLayout=stackLayout;horizontal=1;startSize=26;horizontalStack=0;resizeParent=1;resizeParentMax=0;resizeLast=0;collapsible=1;marginBottom=0;whiteSpace=wrap;html=1;" parent="1" vertex="1">
                    <mxGeometry x="2188" y="610" width="310" height="240" as="geometry"/>
                </mxCell>
                <mxCell id="gM1NPIZIfln_9cXg1RTb-18" value="&lt;div&gt;- distanceWeight: float&lt;/div&gt;&lt;div&gt;- timeWeight: float&lt;/div&gt;&lt;div&gt;- trafficWeight: float&lt;/div&gt;" style="text;strokeColor=none;fillColor=none;align=left;verticalAlign=top;spacingLeft=4;spacingRight=4;overflow=hidden;rotatable=0;points=[[0,0.5],[1,0.5]];portConstraint=eastwest;whiteSpace=wrap;html=1;" parent="gM1NPIZIfln_9cXg1RTb-17" vertex="1">
                    <mxGeometry y="26" width="310" height="94" as="geometry"/>
                </mxCell>
                <mxCell id="gM1NPIZIfln_9cXg1RTb-19" value="" style="line;strokeWidth=1;fillColor=none;align=left;verticalAlign=middle;spacingTop=-1;spacingLeft=3;spacingRight=3;rotatable=0;labelPosition=right;points=[];portConstraint=eastwest;strokeColor=inherit;" parent="gM1NPIZIfln_9cXg1RTb-17" vertex="1">
                    <mxGeometry y="120" width="310" height="8" as="geometry"/>
                </mxCell>
                <mxCell id="gM1NPIZIfln_9cXg1RTb-20" value="&lt;div&gt;+ evaluation(Edge edge)&lt;/div&gt;&lt;div&gt;+ setDistanceWeight(float distanceWeight)&lt;/div&gt;&lt;div&gt;+ setTimeWeight(float timeWeight)&lt;/div&gt;&lt;div&gt;+ setTrafficWeight(float trafficWeight&lt;/div&gt;" style="text;strokeColor=none;fillColor=none;align=left;verticalAlign=top;spacingLeft=4;spacingRight=4;overflow=hidden;rotatable=0;points=[[0,0.5],[1,0.5]];portConstraint=eastwest;whiteSpace=wrap;html=1;" parent="gM1NPIZIfln_9cXg1RTb-17" vertex="1">
                    <mxGeometry y="128" width="310" height="112" as="geometry"/>
                </mxCell>
                <mxCell id="gM1NPIZIfln_9cXg1RTb-21" value="Graph" style="swimlane;fontStyle=1;align=center;verticalAlign=top;childLayout=stackLayout;horizontal=1;startSize=26;horizontalStack=0;resizeParent=1;resizeParentMax=0;resizeLast=0;collapsible=1;marginBottom=0;whiteSpace=wrap;html=1;" parent="1" vertex="1">
                    <mxGeometry x="1530" y="10" width="260" height="208" as="geometry">
                        <mxRectangle x="1890" y="520" width="80" height="30" as="alternateBounds"/>
                    </mxGeometry>
                </mxCell>
                <mxCell id="gM1NPIZIfln_9cXg1RTb-22" value="&lt;div&gt;- adjacencyList: Map&amp;lt;Point, List&amp;lt;Edge&amp;gt;&amp;gt;&lt;/div&gt;" style="text;strokeColor=none;fillColor=none;align=left;verticalAlign=top;spacingLeft=4;spacingRight=4;overflow=hidden;rotatable=0;points=[[0,0.5],[1,0.5]];portConstraint=eastwest;whiteSpace=wrap;html=1;" parent="gM1NPIZIfln_9cXg1RTb-21" vertex="1">
                    <mxGeometry y="26" width="260" height="94" as="geometry"/>
                </mxCell>
                <mxCell id="gM1NPIZIfln_9cXg1RTb-23" value="" style="line;strokeWidth=1;fillColor=none;align=left;verticalAlign=middle;spacingTop=-1;spacingLeft=3;spacingRight=3;rotatable=0;labelPosition=right;points=[];portConstraint=eastwest;strokeColor=inherit;" parent="gM1NPIZIfln_9cXg1RTb-21" vertex="1">
                    <mxGeometry y="120" width="260" height="8" as="geometry"/>
                </mxCell>
                <mxCell id="gM1NPIZIfln_9cXg1RTb-24" value="&lt;div&gt;+ addPoint(Point point)&lt;/div&gt;&lt;div&gt;- delPoint(Point point)&lt;/div&gt;&lt;div&gt;+ addEdge(//Edges parameters)&lt;/div&gt;&lt;div&gt;- delEdges()&lt;/div&gt;&lt;div&gt;+ visualise()&lt;/div&gt;" style="text;strokeColor=none;fillColor=none;align=left;verticalAlign=top;spacingLeft=4;spacingRight=4;overflow=hidden;rotatable=0;points=[[0,0.5],[1,0.5]];portConstraint=eastwest;whiteSpace=wrap;html=1;" parent="gM1NPIZIfln_9cXg1RTb-21" vertex="1">
                    <mxGeometry y="128" width="260" height="80" as="geometry"/>
                </mxCell>
                <mxCell id="gM1NPIZIfln_9cXg1RTb-25" value="Itinary" style="swimlane;fontStyle=1;align=center;verticalAlign=top;childLayout=stackLayout;horizontal=1;startSize=26;horizontalStack=0;resizeParent=1;resizeParentMax=0;resizeLast=0;collapsible=1;marginBottom=0;whiteSpace=wrap;html=1;" parent="1" vertex="1">
                    <mxGeometry x="1980" y="-120" width="208" height="200" as="geometry"/>
                </mxCell>
                <mxCell id="gM1NPIZIfln_9cXg1RTb-26" value="- routes: LinkedList&amp;lt;Routes&amp;gt;&lt;br&gt;- weight: float" style="text;strokeColor=none;fillColor=none;align=left;verticalAlign=top;spacingLeft=4;spacingRight=4;overflow=hidden;rotatable=0;points=[[0,0.5],[1,0.5]];portConstraint=eastwest;whiteSpace=wrap;html=1;" parent="gM1NPIZIfln_9cXg1RTb-25" vertex="1">
                    <mxGeometry y="26" width="208" height="94" as="geometry"/>
                </mxCell>
                <mxCell id="gM1NPIZIfln_9cXg1RTb-27" value="" style="line;strokeWidth=1;fillColor=none;align=left;verticalAlign=middle;spacingTop=-1;spacingLeft=3;spacingRight=3;rotatable=0;labelPosition=right;points=[];portConstraint=eastwest;strokeColor=inherit;" parent="gM1NPIZIfln_9cXg1RTb-25" vertex="1">
                    <mxGeometry y="120" width="208" height="8" as="geometry"/>
                </mxCell>
                <mxCell id="gM1NPIZIfln_9cXg1RTb-28" value="&lt;div&gt;+ setTotalWeight()&lt;/div&gt;" style="text;strokeColor=none;fillColor=none;align=left;verticalAlign=top;spacingLeft=4;spacingRight=4;overflow=hidden;rotatable=0;points=[[0,0.5],[1,0.5]];portConstraint=eastwest;whiteSpace=wrap;html=1;" parent="gM1NPIZIfln_9cXg1RTb-25" vertex="1">
                    <mxGeometry y="128" width="208" height="72" as="geometry"/>
                </mxCell>
                <mxCell id="gM1NPIZIfln_9cXg1RTb-38" value="PathFinder" style="swimlane;fontStyle=1;align=center;verticalAlign=top;childLayout=stackLayout;horizontal=1;startSize=26;horizontalStack=0;resizeParent=1;resizeParentMax=0;resizeLast=0;collapsible=1;marginBottom=0;whiteSpace=wrap;html=1;" parent="1" vertex="1">
                    <mxGeometry x="1220" y="10" width="250" height="200" as="geometry"/>
                </mxCell>
                <mxCell id="gM1NPIZIfln_9cXg1RTb-39" value="//" style="text;strokeColor=none;fillColor=none;align=left;verticalAlign=top;spacingLeft=4;spacingRight=4;overflow=hidden;rotatable=0;points=[[0,0.5],[1,0.5]];portConstraint=eastwest;whiteSpace=wrap;html=1;" parent="gM1NPIZIfln_9cXg1RTb-38" vertex="1">
                    <mxGeometry y="26" width="250" height="94" as="geometry"/>
                </mxCell>
                <mxCell id="gM1NPIZIfln_9cXg1RTb-40" value="" style="line;strokeWidth=1;fillColor=none;align=left;verticalAlign=middle;spacingTop=-1;spacingLeft=3;spacingRight=3;rotatable=0;labelPosition=right;points=[];portConstraint=eastwest;strokeColor=inherit;" parent="gM1NPIZIfln_9cXg1RTb-38" vertex="1">
                    <mxGeometry y="120" width="250" height="8" as="geometry"/>
                </mxCell>
                <mxCell id="gM1NPIZIfln_9cXg1RTb-41" value="&lt;div&gt;+ static allPaths(Point A, Point B): List&amp;lt;Itinary&amp;gt;&lt;/div&gt;&lt;div&gt;+ static bestPath(PointA, Point B): Itinary&lt;/div&gt;" style="text;strokeColor=none;fillColor=none;align=left;verticalAlign=top;spacingLeft=4;spacingRight=4;overflow=hidden;rotatable=0;points=[[0,0.5],[1,0.5]];portConstraint=eastwest;whiteSpace=wrap;html=1;" parent="gM1NPIZIfln_9cXg1RTb-38" vertex="1">
                    <mxGeometry y="128" width="250" height="72" as="geometry"/>
                </mxCell>
                <mxCell id="gM1NPIZIfln_9cXg1RTb-42" value="CostEvaluation" style="swimlane;fontStyle=1;align=center;verticalAlign=top;childLayout=stackLayout;horizontal=1;startSize=26;horizontalStack=0;resizeParent=1;resizeParentMax=0;resizeLast=0;collapsible=1;marginBottom=0;whiteSpace=wrap;html=1;" parent="1" vertex="1">
                    <mxGeometry x="2223" y="154" width="240" height="200" as="geometry"/>
                </mxCell>
                <mxCell id="gM1NPIZIfln_9cXg1RTb-43" value="//" style="text;strokeColor=none;fillColor=none;align=left;verticalAlign=top;spacingLeft=4;spacingRight=4;overflow=hidden;rotatable=0;points=[[0,0.5],[1,0.5]];portConstraint=eastwest;whiteSpace=wrap;html=1;" parent="gM1NPIZIfln_9cXg1RTb-42" vertex="1">
                    <mxGeometry y="26" width="240" height="94" as="geometry"/>
                </mxCell>
                <mxCell id="gM1NPIZIfln_9cXg1RTb-44" value="" style="line;strokeWidth=1;fillColor=none;align=left;verticalAlign=middle;spacingTop=-1;spacingLeft=3;spacingRight=3;rotatable=0;labelPosition=right;points=[];portConstraint=eastwest;strokeColor=inherit;" parent="gM1NPIZIfln_9cXg1RTb-42" vertex="1">
                    <mxGeometry y="120" width="240" height="8" as="geometry"/>
                </mxCell>
                <mxCell id="gM1NPIZIfln_9cXg1RTb-45" value="&lt;div&gt;+ static evaluateCost(itinary: Itinary): float&lt;/div&gt;" style="text;strokeColor=none;fillColor=none;align=left;verticalAlign=top;spacingLeft=4;spacingRight=4;overflow=hidden;rotatable=0;points=[[0,0.5],[1,0.5]];portConstraint=eastwest;whiteSpace=wrap;html=1;" parent="gM1NPIZIfln_9cXg1RTb-42" vertex="1">
                    <mxGeometry y="128" width="240" height="72" as="geometry"/>
                </mxCell>
                <mxCell id="gM1NPIZIfln_9cXg1RTb-47" value="1" style="endArrow=open;html=1;endSize=12;startArrow=diamondThin;startSize=14;startFill=1;edgeStyle=orthogonalEdgeStyle;align=left;verticalAlign=bottom;exitX=0.477;exitY=1.028;exitDx=0;exitDy=0;exitPerimeter=0;entryX=0.5;entryY=0;entryDx=0;entryDy=0;" parent="1" source="gM1NPIZIfln_9cXg1RTb-24" target="gM1NPIZIfln_9cXg1RTb-5" edge="1">
                    <mxGeometry x="-1" y="3" relative="1" as="geometry">
                        <mxPoint x="1740" y="290" as="sourcePoint"/>
                        <mxPoint x="1900" y="290" as="targetPoint"/>
                        <Array as="points">
                            <mxPoint x="1654" y="250"/>
                            <mxPoint x="1520" y="250"/>
                        </Array>
                    </mxGeometry>
                </mxCell>
                <mxCell id="gM1NPIZIfln_9cXg1RTb-49" value="1" style="endArrow=open;html=1;endSize=12;startArrow=diamondThin;startSize=14;startFill=1;edgeStyle=orthogonalEdgeStyle;align=left;verticalAlign=bottom;exitX=0.627;exitY=1.014;exitDx=0;exitDy=0;exitPerimeter=0;entryX=0.447;entryY=0;entryDx=0;entryDy=0;entryPerimeter=0;" parent="1" source="gM1NPIZIfln_9cXg1RTb-24" target="gM1NPIZIfln_9cXg1RTb-13" edge="1">
                    <mxGeometry x="-1" y="3" relative="1" as="geometry">
                        <mxPoint x="1700" y="260" as="sourcePoint"/>
                        <mxPoint x="1860" y="260" as="targetPoint"/>
                    </mxGeometry>
                </mxCell>
                <mxCell id="gM1NPIZIfln_9cXg1RTb-50" value="1" style="endArrow=open;html=1;endSize=12;startArrow=diamondThin;startSize=14;startFill=0;edgeStyle=orthogonalEdgeStyle;align=left;verticalAlign=bottom;entryX=0.588;entryY=-0.005;entryDx=0;entryDy=0;entryPerimeter=0;exitX=0.444;exitY=1;exitDx=0;exitDy=0;exitPerimeter=0;" parent="1" source="gM1NPIZIfln_9cXg1RTb-12" target="gM1NPIZIfln_9cXg1RTb-13" edge="1">
                    <mxGeometry x="-1" y="3" relative="1" as="geometry">
                        <mxPoint x="1970" y="470" as="sourcePoint"/>
                        <mxPoint x="2130" y="470" as="targetPoint"/>
                    </mxGeometry>
                </mxCell>
                <mxCell id="gM1NPIZIfln_9cXg1RTb-51" value="1" style="endArrow=open;html=1;endSize=12;startArrow=diamondThin;startSize=14;startFill=0;edgeStyle=orthogonalEdgeStyle;align=left;verticalAlign=bottom;exitX=0.418;exitY=1;exitDx=0;exitDy=0;exitPerimeter=0;entryX=0.5;entryY=0;entryDx=0;entryDy=0;" parent="1" source="gM1NPIZIfln_9cXg1RTb-28" target="gM1NPIZIfln_9cXg1RTb-9" edge="1">
                    <mxGeometry x="-1" y="3" relative="1" as="geometry">
                        <mxPoint x="2020" y="130" as="sourcePoint"/>
                        <mxPoint x="2180" y="130" as="targetPoint"/>
                    </mxGeometry>
                </mxCell>
                <mxCell id="gM1NPIZIfln_9cXg1RTb-52" value="Use" style="endArrow=open;endSize=12;dashed=1;html=1;entryX=-0.013;entryY=0.734;entryDx=0;entryDy=0;entryPerimeter=0;exitX=1;exitY=0.561;exitDx=0;exitDy=0;exitPerimeter=0;" parent="1" source="gM1NPIZIfln_9cXg1RTb-14" target="gM1NPIZIfln_9cXg1RTb-18" edge="1">
                    <mxGeometry width="160" relative="1" as="geometry">
                        <mxPoint x="2010" y="700" as="sourcePoint"/>
                        <mxPoint x="2170" y="700" as="targetPoint"/>
                    </mxGeometry>
                </mxCell>
                <mxCell id="gM1NPIZIfln_9cXg1RTb-53" value="Use" style="endArrow=open;endSize=12;dashed=1;html=1;exitX=0.425;exitY=-0.015;exitDx=0;exitDy=0;exitPerimeter=0;entryX=0.767;entryY=1.036;entryDx=0;entryDy=0;entryPerimeter=0;" parent="1" source="gM1NPIZIfln_9cXg1RTb-42" target="gM1NPIZIfln_9cXg1RTb-28" edge="1">
                    <mxGeometry width="160" relative="1" as="geometry">
                        <mxPoint x="1430" y="690" as="sourcePoint"/>
                        <mxPoint x="1590" y="690" as="targetPoint"/>
                    </mxGeometry>
                </mxCell>
                <mxCell id="gM1NPIZIfln_9cXg1RTb-54" value="Use" style="endArrow=open;endSize=12;dashed=1;html=1;exitX=0.464;exitY=1.014;exitDx=0;exitDy=0;exitPerimeter=0;entryX=0.313;entryY=0.003;entryDx=0;entryDy=0;entryPerimeter=0;" parent="1" source="gM1NPIZIfln_9cXg1RTb-41" target="gM1NPIZIfln_9cXg1RTb-5" edge="1">
                    <mxGeometry width="160" relative="1" as="geometry">
                        <mxPoint x="1340" y="250" as="sourcePoint"/>
                        <mxPoint x="1500" y="250" as="targetPoint"/>
                    </mxGeometry>
                </mxCell>
                <mxCell id="SXevtULtFofoFfmIAPnS-1" value="Tag" style="swimlane;fontStyle=1;align=center;verticalAlign=top;childLayout=stackLayout;horizontal=1;startSize=26;horizontalStack=0;resizeParent=1;resizeParentMax=0;resizeLast=0;collapsible=1;marginBottom=0;whiteSpace=wrap;html=1;" parent="1" vertex="1">
                    <mxGeometry x="1200" y="319" width="160" height="222" as="geometry"/>
                </mxCell>
                <mxCell id="SXevtULtFofoFfmIAPnS-2" value="&lt;div&gt;- name: String // Restaurant&lt;/div&gt;" style="text;strokeColor=none;fillColor=none;align=left;verticalAlign=top;spacingLeft=4;spacingRight=4;overflow=hidden;rotatable=0;points=[[0,0.5],[1,0.5]];portConstraint=eastwest;whiteSpace=wrap;html=1;" parent="SXevtULtFofoFfmIAPnS-1" vertex="1">
                    <mxGeometry y="26" width="160" height="34" as="geometry"/>
                </mxCell>
                <mxCell id="SXevtULtFofoFfmIAPnS-3" value="" style="line;strokeWidth=1;fillColor=none;align=left;verticalAlign=middle;spacingTop=-1;spacingLeft=3;spacingRight=3;rotatable=0;labelPosition=right;points=[];portConstraint=eastwest;strokeColor=inherit;" parent="SXevtULtFofoFfmIAPnS-1" vertex="1">
                    <mxGeometry y="60" width="160" height="60" as="geometry"/>
                </mxCell>
                <mxCell id="SXevtULtFofoFfmIAPnS-4" value="//" style="text;strokeColor=none;fillColor=none;align=left;verticalAlign=top;spacingLeft=4;spacingRight=4;overflow=hidden;rotatable=0;points=[[0,0.5],[1,0.5]];portConstraint=eastwest;whiteSpace=wrap;html=1;" parent="SXevtULtFofoFfmIAPnS-1" vertex="1">
                    <mxGeometry y="120" width="160" height="102" as="geometry"/>
                </mxCell>
            </root>
        </mxGraphModel>
    </diagram>
    <diagram id="VxQ_OccVnM0hksw245VQ" name="Modèle d'Objets">
        <mxGraphModel dx="656" dy="409" grid="1" gridSize="10" guides="1" tooltips="1" connect="1" arrows="1" fold="1" page="1" pageScale="1" pageWidth="827" pageHeight="1169" math="0" shadow="0">
            <root>
                <mxCell id="0"/>
                <mxCell id="1" parent="0"/>
                <mxCell id="UTCIxJKsS2tkSXNgAGZ1-1" value="Patient12" style="swimlane;fontStyle=1;align=center;verticalAlign=top;childLayout=stackLayout;horizontal=1;startSize=26;horizontalStack=0;resizeParent=1;resizeParentMax=0;resizeLast=0;collapsible=1;marginBottom=0;whiteSpace=wrap;html=1;" parent="1" vertex="1">
                    <mxGeometry x="131" y="224" width="160" height="200" as="geometry"/>
                </mxCell>
                <mxCell id="UTCIxJKsS2tkSXNgAGZ1-2" value="+ id_p: 12&lt;div&gt;+ nom: &quot;nguepssi&quot;&lt;/div&gt;&lt;div&gt;+ prenom: &quot;brayanne&quot;&lt;/div&gt;&lt;div&gt;+ age: 20&lt;/div&gt;&lt;div&gt;+ sexe: &quot;masculin&quot;&lt;/div&gt;&lt;div&gt;+ assurance: oui&lt;/div&gt;&lt;div&gt;+ statut: &quot;malade&quot;&lt;/div&gt;" style="text;strokeColor=none;fillColor=none;align=left;verticalAlign=top;spacingLeft=4;spacingRight=4;overflow=hidden;rotatable=0;points=[[0,0.5],[1,0.5]];portConstraint=eastwest;whiteSpace=wrap;html=1;" parent="UTCIxJKsS2tkSXNgAGZ1-1" vertex="1">
                    <mxGeometry y="26" width="160" height="114" as="geometry"/>
                </mxCell>
                <mxCell id="UTCIxJKsS2tkSXNgAGZ1-3" value="" style="line;strokeWidth=1;fillColor=none;align=left;verticalAlign=middle;spacingTop=-1;spacingLeft=3;spacingRight=3;rotatable=0;labelPosition=right;points=[];portConstraint=eastwest;strokeColor=inherit;" parent="UTCIxJKsS2tkSXNgAGZ1-1" vertex="1">
                    <mxGeometry y="140" width="160" height="8" as="geometry"/>
                </mxCell>
                <mxCell id="UTCIxJKsS2tkSXNgAGZ1-4" value="+ choisir()&lt;div&gt;+ consulter()&lt;/div&gt;&lt;div&gt;+ payer()&lt;/div&gt;" style="text;strokeColor=none;fillColor=none;align=left;verticalAlign=top;spacingLeft=4;spacingRight=4;overflow=hidden;rotatable=0;points=[[0,0.5],[1,0.5]];portConstraint=eastwest;whiteSpace=wrap;html=1;" parent="UTCIxJKsS2tkSXNgAGZ1-1" vertex="1">
                    <mxGeometry y="148" width="160" height="52" as="geometry"/>
                </mxCell>
                <mxCell id="UTCIxJKsS2tkSXNgAGZ1-5" value="Generaliste1" style="swimlane;fontStyle=1;align=center;verticalAlign=top;childLayout=stackLayout;horizontal=1;startSize=26;horizontalStack=0;resizeParent=1;resizeParentMax=0;resizeLast=0;collapsible=1;marginBottom=0;whiteSpace=wrap;html=1;" parent="1" vertex="1">
                    <mxGeometry x="448" y="204" width="160" height="240" as="geometry"/>
                </mxCell>
                <mxCell id="UTCIxJKsS2tkSXNgAGZ1-6" value="&lt;div&gt;+ id_M: 14&lt;/div&gt;+ id_G: 1&lt;div&gt;+ nom: &quot;kougem&quot;&lt;/div&gt;&lt;div&gt;+ prenom: &quot;isis&quot;&lt;/div&gt;&lt;div&gt;+ age: 20&lt;/div&gt;&lt;div&gt;+ sexe: &quot;feminin&quot;&lt;/div&gt;&lt;div&gt;+ assurance: oui&lt;/div&gt;&lt;div&gt;+ statut: &quot;sante&quot;&lt;/div&gt;" style="text;strokeColor=none;fillColor=none;align=left;verticalAlign=top;spacingLeft=4;spacingRight=4;overflow=hidden;rotatable=0;points=[[0,0.5],[1,0.5]];portConstraint=eastwest;whiteSpace=wrap;html=1;" parent="UTCIxJKsS2tkSXNgAGZ1-5" vertex="1">
                    <mxGeometry y="26" width="160" height="124" as="geometry"/>
                </mxCell>
                <mxCell id="UTCIxJKsS2tkSXNgAGZ1-7" value="" style="line;strokeWidth=1;fillColor=none;align=left;verticalAlign=middle;spacingTop=-1;spacingLeft=3;spacingRight=3;rotatable=0;labelPosition=right;points=[];portConstraint=eastwest;strokeColor=inherit;" parent="UTCIxJKsS2tkSXNgAGZ1-5" vertex="1">
                    <mxGeometry y="150" width="160" height="8" as="geometry"/>
                </mxCell>
                <mxCell id="UTCIxJKsS2tkSXNgAGZ1-8" value="+ remboursement()&lt;div&gt;+ prescrire()&lt;/div&gt;&lt;div&gt;+ fournir()&lt;/div&gt;&lt;div&gt;+ enregistrer()&lt;/div&gt;" style="text;strokeColor=none;fillColor=none;align=left;verticalAlign=top;spacingLeft=4;spacingRight=4;overflow=hidden;rotatable=0;points=[[0,0.5],[1,0.5]];portConstraint=eastwest;whiteSpace=wrap;html=1;" parent="UTCIxJKsS2tkSXNgAGZ1-5" vertex="1">
                    <mxGeometry y="158" width="160" height="82" as="geometry"/>
                </mxCell>
                <mxCell id="UTCIxJKsS2tkSXNgAGZ1-9" value="Specialiste10" style="swimlane;fontStyle=1;align=center;verticalAlign=top;childLayout=stackLayout;horizontal=1;startSize=26;horizontalStack=0;resizeParent=1;resizeParentMax=0;resizeLast=0;collapsible=1;marginBottom=0;whiteSpace=wrap;html=1;" parent="1" vertex="1">
                    <mxGeometry x="798" y="574" width="160" height="240" as="geometry"/>
                </mxCell>
                <mxCell id="UTCIxJKsS2tkSXNgAGZ1-10" value="&lt;div&gt;+ id_M: 5&lt;/div&gt;+ id_S: 10&lt;div&gt;+ nom: &quot;atabong&quot;&lt;/div&gt;&lt;div&gt;+ prenom: &quot;stephane&quot;&lt;/div&gt;&lt;div&gt;+ age: 22&lt;/div&gt;&lt;div&gt;+ sexe: &quot;masculin&quot;&lt;/div&gt;&lt;div&gt;+ assurance: oui&lt;/div&gt;&lt;div&gt;+ statut: &quot;sante&quot;&lt;/div&gt;" style="text;strokeColor=none;fillColor=none;align=left;verticalAlign=top;spacingLeft=4;spacingRight=4;overflow=hidden;rotatable=0;points=[[0,0.5],[1,0.5]];portConstraint=eastwest;whiteSpace=wrap;html=1;" parent="UTCIxJKsS2tkSXNgAGZ1-9" vertex="1">
                    <mxGeometry y="26" width="160" height="124" as="geometry"/>
                </mxCell>
                <mxCell id="UTCIxJKsS2tkSXNgAGZ1-11" value="" style="line;strokeWidth=1;fillColor=none;align=left;verticalAlign=middle;spacingTop=-1;spacingLeft=3;spacingRight=3;rotatable=0;labelPosition=right;points=[];portConstraint=eastwest;strokeColor=inherit;" parent="UTCIxJKsS2tkSXNgAGZ1-9" vertex="1">
                    <mxGeometry y="150" width="160" height="8" as="geometry"/>
                </mxCell>
                <mxCell id="UTCIxJKsS2tkSXNgAGZ1-12" value="+ remboursement()&lt;div&gt;+ prescrire()&lt;/div&gt;&lt;div&gt;+ fournir()&lt;/div&gt;&lt;div&gt;+ enregistrer()&lt;/div&gt;" style="text;strokeColor=none;fillColor=none;align=left;verticalAlign=top;spacingLeft=4;spacingRight=4;overflow=hidden;rotatable=0;points=[[0,0.5],[1,0.5]];portConstraint=eastwest;whiteSpace=wrap;html=1;" parent="UTCIxJKsS2tkSXNgAGZ1-9" vertex="1">
                    <mxGeometry y="158" width="160" height="82" as="geometry"/>
                </mxCell>
                <mxCell id="UTCIxJKsS2tkSXNgAGZ1-13" value="FIche_Maladie1" style="swimlane;fontStyle=1;align=center;verticalAlign=top;childLayout=stackLayout;horizontal=1;startSize=26;horizontalStack=0;resizeParent=1;resizeParentMax=0;resizeLast=0;collapsible=1;marginBottom=0;whiteSpace=wrap;html=1;" parent="1" vertex="1">
                    <mxGeometry x="798" y="344" width="160" height="134" as="geometry"/>
                </mxCell>
                <mxCell id="UTCIxJKsS2tkSXNgAGZ1-14" value="+ id_FM : 1&lt;div&gt;+ id_M: 5&lt;/div&gt;&lt;div&gt;+ date: &quot;18/03/2024&quot;&lt;br&gt;&lt;/div&gt;&lt;div&gt;+ heure: 10&lt;/div&gt;" style="text;strokeColor=none;fillColor=none;align=left;verticalAlign=top;spacingLeft=4;spacingRight=4;overflow=hidden;rotatable=0;points=[[0,0.5],[1,0.5]];portConstraint=eastwest;whiteSpace=wrap;html=1;" parent="UTCIxJKsS2tkSXNgAGZ1-13" vertex="1">
                    <mxGeometry y="26" width="160" height="74" as="geometry"/>
                </mxCell>
                <mxCell id="UTCIxJKsS2tkSXNgAGZ1-15" value="" style="line;strokeWidth=1;fillColor=none;align=left;verticalAlign=middle;spacingTop=-1;spacingLeft=3;spacingRight=3;rotatable=0;labelPosition=right;points=[];portConstraint=eastwest;strokeColor=inherit;" parent="UTCIxJKsS2tkSXNgAGZ1-13" vertex="1">
                    <mxGeometry y="100" width="160" height="8" as="geometry"/>
                </mxCell>
                <mxCell id="UTCIxJKsS2tkSXNgAGZ1-16" value="&lt;div&gt;&lt;br&gt;&lt;/div&gt;&lt;div&gt;&lt;br&gt;&lt;/div&gt;" style="text;strokeColor=none;fillColor=none;align=left;verticalAlign=top;spacingLeft=4;spacingRight=4;overflow=hidden;rotatable=0;points=[[0,0.5],[1,0.5]];portConstraint=eastwest;whiteSpace=wrap;html=1;" parent="UTCIxJKsS2tkSXNgAGZ1-13" vertex="1">
                    <mxGeometry y="108" width="160" height="26" as="geometry"/>
                </mxCell>
                <mxCell id="UTCIxJKsS2tkSXNgAGZ1-17" value="Medicament20" style="swimlane;fontStyle=1;align=center;verticalAlign=top;childLayout=stackLayout;horizontal=1;startSize=26;horizontalStack=0;resizeParent=1;resizeParentMax=0;resizeLast=0;collapsible=1;marginBottom=0;whiteSpace=wrap;html=1;" parent="1" vertex="1">
                    <mxGeometry x="1118" y="354" width="160" height="134" as="geometry"/>
                </mxCell>
                <mxCell id="UTCIxJKsS2tkSXNgAGZ1-18" value="+ id_Medoc : 20&lt;div&gt;+ nom_medoc: &quot;flagine&quot;&lt;/div&gt;&lt;div&gt;+ date_AV: &quot;20/12/2025&quot;&lt;br&gt;&lt;/div&gt;&lt;div&gt;+ nbre_stock: 10&lt;/div&gt;" style="text;strokeColor=none;fillColor=none;align=left;verticalAlign=top;spacingLeft=4;spacingRight=4;overflow=hidden;rotatable=0;points=[[0,0.5],[1,0.5]];portConstraint=eastwest;whiteSpace=wrap;html=1;" parent="UTCIxJKsS2tkSXNgAGZ1-17" vertex="1">
                    <mxGeometry y="26" width="160" height="74" as="geometry"/>
                </mxCell>
                <mxCell id="UTCIxJKsS2tkSXNgAGZ1-19" value="" style="line;strokeWidth=1;fillColor=none;align=left;verticalAlign=middle;spacingTop=-1;spacingLeft=3;spacingRight=3;rotatable=0;labelPosition=right;points=[];portConstraint=eastwest;strokeColor=inherit;" parent="UTCIxJKsS2tkSXNgAGZ1-17" vertex="1">
                    <mxGeometry y="100" width="160" height="8" as="geometry"/>
                </mxCell>
                <mxCell id="UTCIxJKsS2tkSXNgAGZ1-20" value="&lt;div&gt;&lt;div&gt;+ lister()&lt;/div&gt;&lt;div&gt;&lt;br&gt;&lt;/div&gt;&lt;/div&gt;" style="text;strokeColor=none;fillColor=none;align=left;verticalAlign=top;spacingLeft=4;spacingRight=4;overflow=hidden;rotatable=0;points=[[0,0.5],[1,0.5]];portConstraint=eastwest;whiteSpace=wrap;html=1;" parent="UTCIxJKsS2tkSXNgAGZ1-17" vertex="1">
                    <mxGeometry y="108" width="160" height="26" as="geometry"/>
                </mxCell>
                <mxCell id="UTCIxJKsS2tkSXNgAGZ1-21" value="Prescription2" style="swimlane;fontStyle=1;align=center;verticalAlign=top;childLayout=stackLayout;horizontal=1;startSize=26;horizontalStack=0;resizeParent=1;resizeParentMax=0;resizeLast=0;collapsible=1;marginBottom=0;whiteSpace=wrap;html=1;" parent="1" vertex="1">
                    <mxGeometry x="1118" y="612" width="160" height="164" as="geometry"/>
                </mxCell>
                <mxCell id="UTCIxJKsS2tkSXNgAGZ1-22" value="+ id_prescription: 2&lt;div&gt;+ id_M: 5&lt;/div&gt;&lt;div&gt;+ id_medoc: 20&lt;/div&gt;&lt;div&gt;+ nom_medoc: &quot;flagine&quot;&lt;br&gt;&lt;div&gt;&lt;span style=&quot;background-color: initial;&quot;&gt;+ nombre_piece: 1&lt;/span&gt;&lt;br&gt;&lt;/div&gt;&lt;div&gt;+ date: &quot;18/03/2024&quot;&lt;/div&gt;&lt;div&gt;+ heure: 11&lt;/div&gt;&lt;/div&gt;" style="text;strokeColor=none;fillColor=none;align=left;verticalAlign=top;spacingLeft=4;spacingRight=4;overflow=hidden;rotatable=0;points=[[0,0.5],[1,0.5]];portConstraint=eastwest;whiteSpace=wrap;html=1;" parent="UTCIxJKsS2tkSXNgAGZ1-21" vertex="1">
                    <mxGeometry y="26" width="160" height="104" as="geometry"/>
                </mxCell>
                <mxCell id="UTCIxJKsS2tkSXNgAGZ1-23" value="" style="line;strokeWidth=1;fillColor=none;align=left;verticalAlign=middle;spacingTop=-1;spacingLeft=3;spacingRight=3;rotatable=0;labelPosition=right;points=[];portConstraint=eastwest;strokeColor=inherit;" parent="UTCIxJKsS2tkSXNgAGZ1-21" vertex="1">
                    <mxGeometry y="130" width="160" height="8" as="geometry"/>
                </mxCell>
                <mxCell id="UTCIxJKsS2tkSXNgAGZ1-24" value="&lt;div&gt;&lt;div&gt;+ lister()&lt;/div&gt;&lt;div&gt;&lt;br&gt;&lt;/div&gt;&lt;/div&gt;" style="text;strokeColor=none;fillColor=none;align=left;verticalAlign=top;spacingLeft=4;spacingRight=4;overflow=hidden;rotatable=0;points=[[0,0.5],[1,0.5]];portConstraint=eastwest;whiteSpace=wrap;html=1;" parent="UTCIxJKsS2tkSXNgAGZ1-21" vertex="1">
                    <mxGeometry y="138" width="160" height="26" as="geometry"/>
                </mxCell>
                <mxCell id="UTCIxJKsS2tkSXNgAGZ1-25" value="Consultation6" style="swimlane;fontStyle=1;align=center;verticalAlign=top;childLayout=stackLayout;horizontal=1;startSize=26;horizontalStack=0;resizeParent=1;resizeParentMax=0;resizeLast=0;collapsible=1;marginBottom=0;whiteSpace=wrap;html=1;" parent="1" vertex="1">
                    <mxGeometry x="458" y="604" width="160" height="164" as="geometry"/>
                </mxCell>
                <mxCell id="UTCIxJKsS2tkSXNgAGZ1-26" value="+ id_C : 6&lt;div&gt;+ id_P: 12&lt;/div&gt;&lt;div&gt;+ id_M: 14&lt;/div&gt;&lt;div&gt;+ id_S: 10&lt;/div&gt;&lt;div&gt;+ date: &quot;18/03/2024&quot;&lt;/div&gt;&lt;div&gt;&lt;span style=&quot;background-color: initial;&quot;&gt;+ heure: 10&lt;/span&gt;&lt;/div&gt;" style="text;strokeColor=none;fillColor=none;align=left;verticalAlign=top;spacingLeft=4;spacingRight=4;overflow=hidden;rotatable=0;points=[[0,0.5],[1,0.5]];portConstraint=eastwest;whiteSpace=wrap;html=1;" parent="UTCIxJKsS2tkSXNgAGZ1-25" vertex="1">
                    <mxGeometry y="26" width="160" height="104" as="geometry"/>
                </mxCell>
                <mxCell id="UTCIxJKsS2tkSXNgAGZ1-27" value="" style="line;strokeWidth=1;fillColor=none;align=left;verticalAlign=middle;spacingTop=-1;spacingLeft=3;spacingRight=3;rotatable=0;labelPosition=right;points=[];portConstraint=eastwest;strokeColor=inherit;" parent="UTCIxJKsS2tkSXNgAGZ1-25" vertex="1">
                    <mxGeometry y="130" width="160" height="8" as="geometry"/>
                </mxCell>
                <mxCell id="UTCIxJKsS2tkSXNgAGZ1-28" value="&lt;div&gt;&lt;br&gt;&lt;/div&gt;&lt;div&gt;&lt;br&gt;&lt;/div&gt;" style="text;strokeColor=none;fillColor=none;align=left;verticalAlign=top;spacingLeft=4;spacingRight=4;overflow=hidden;rotatable=0;points=[[0,0.5],[1,0.5]];portConstraint=eastwest;whiteSpace=wrap;html=1;" parent="UTCIxJKsS2tkSXNgAGZ1-25" vertex="1">
                    <mxGeometry y="138" width="160" height="26" as="geometry"/>
                </mxCell>
                <mxCell id="UTCIxJKsS2tkSXNgAGZ1-29" value="" style="line;strokeWidth=1;fillColor=none;align=left;verticalAlign=middle;spacingTop=-1;spacingLeft=3;spacingRight=3;rotatable=0;labelPosition=right;points=[];portConstraint=eastwest;strokeColor=inherit;" parent="1" vertex="1">
                    <mxGeometry x="291" y="320" width="157" height="8" as="geometry"/>
                </mxCell>
                <mxCell id="UTCIxJKsS2tkSXNgAGZ1-30" value="" style="endArrow=none;html=1;edgeStyle=orthogonalEdgeStyle;rounded=0;" parent="1" edge="1">
                    <mxGeometry relative="1" as="geometry">
                        <mxPoint x="538" y="444" as="sourcePoint"/>
                        <mxPoint x="538" y="604" as="targetPoint"/>
                    </mxGeometry>
                </mxCell>
                <mxCell id="UTCIxJKsS2tkSXNgAGZ1-31" value="" style="endArrow=none;html=1;edgeStyle=orthogonalEdgeStyle;rounded=0;" parent="1" edge="1">
                    <mxGeometry relative="1" as="geometry">
                        <mxPoint x="618" y="685.5" as="sourcePoint"/>
                        <mxPoint x="798" y="686" as="targetPoint"/>
                    </mxGeometry>
                </mxCell>
                <mxCell id="UTCIxJKsS2tkSXNgAGZ1-32" value="Modèle d'Objet" style="text;html=1;align=center;verticalAlign=middle;resizable=0;points=[];autosize=1;strokeColor=none;fillColor=none;fontStyle=1;fontSize=31;" parent="1" vertex="1">
                    <mxGeometry x="570" y="118" width="240" height="50" as="geometry"/>
                </mxCell>
                <mxCell id="UTCIxJKsS2tkSXNgAGZ1-33" value="" style="endArrow=none;html=1;rounded=0;entryX=0.5;entryY=1.231;entryDx=0;entryDy=0;entryPerimeter=0;exitX=0.5;exitY=0;exitDx=0;exitDy=0;" parent="1" source="UTCIxJKsS2tkSXNgAGZ1-9" target="UTCIxJKsS2tkSXNgAGZ1-16" edge="1">
                    <mxGeometry width="50" height="50" relative="1" as="geometry">
                        <mxPoint x="1048" y="594" as="sourcePoint"/>
                        <mxPoint x="1048" y="514" as="targetPoint"/>
                    </mxGeometry>
                </mxCell>
                <mxCell id="UTCIxJKsS2tkSXNgAGZ1-34" value="" style="endArrow=none;html=1;rounded=0;" parent="1" edge="1">
                    <mxGeometry width="50" height="50" relative="1" as="geometry">
                        <mxPoint x="958" y="686.48" as="sourcePoint"/>
                        <mxPoint x="1118" y="686" as="targetPoint"/>
                    </mxGeometry>
                </mxCell>
                <mxCell id="UTCIxJKsS2tkSXNgAGZ1-35" value="choisir" style="text;html=1;align=center;verticalAlign=middle;resizable=0;points=[];autosize=1;strokeColor=none;fillColor=none;" parent="1" vertex="1">
                    <mxGeometry x="303" y="298" width="60" height="30" as="geometry"/>
                </mxCell>
                <mxCell id="UTCIxJKsS2tkSXNgAGZ1-36" value="prescrire" style="text;html=1;align=center;verticalAlign=middle;resizable=0;points=[];autosize=1;strokeColor=none;fillColor=none;" parent="1" vertex="1">
                    <mxGeometry x="538" y="514" width="70" height="30" as="geometry"/>
                </mxCell>
                <mxCell id="UTCIxJKsS2tkSXNgAGZ1-37" value="effectuer" style="text;html=1;align=center;verticalAlign=middle;resizable=0;points=[];autosize=1;strokeColor=none;fillColor=none;" parent="1" vertex="1">
                    <mxGeometry x="673" y="662" width="70" height="30" as="geometry"/>
                </mxCell>
                <mxCell id="UTCIxJKsS2tkSXNgAGZ1-38" value="enregistrer" style="text;html=1;align=center;verticalAlign=middle;resizable=0;points=[];autosize=1;strokeColor=none;fillColor=none;" parent="1" vertex="1">
                    <mxGeometry x="878" y="522" width="80" height="30" as="geometry"/>
                </mxCell>
                <mxCell id="UTCIxJKsS2tkSXNgAGZ1-39" value="fournir" style="text;html=1;align=center;verticalAlign=middle;resizable=0;points=[];autosize=1;strokeColor=none;fillColor=none;" parent="1" vertex="1">
                    <mxGeometry x="1008" y="662" width="60" height="30" as="geometry"/>
                </mxCell>
                <mxCell id="UTCIxJKsS2tkSXNgAGZ1-40" value="" style="endArrow=diamondThin;endFill=0;endSize=24;html=1;rounded=0;entryX=0.556;entryY=0.012;entryDx=0;entryDy=0;entryPerimeter=0;exitX=0.556;exitY=1.038;exitDx=0;exitDy=0;exitPerimeter=0;" parent="1" source="UTCIxJKsS2tkSXNgAGZ1-20" target="UTCIxJKsS2tkSXNgAGZ1-21" edge="1">
                    <mxGeometry width="160" relative="1" as="geometry">
                        <mxPoint x="1168" y="522" as="sourcePoint"/>
                        <mxPoint x="1328" y="522" as="targetPoint"/>
                    </mxGeometry>
                </mxCell>
                <mxCell id="UTCIxJKsS2tkSXNgAGZ1-41" value="contenir" style="text;html=1;align=center;verticalAlign=middle;resizable=0;points=[];autosize=1;strokeColor=none;fillColor=none;" parent="1" vertex="1">
                    <mxGeometry x="1198" y="534" width="70" height="30" as="geometry"/>
                </mxCell>
                <mxCell id="UTCIxJKsS2tkSXNgAGZ1-42" value="Modelisation Simplifie du Diagramme D'Objet" style="text;html=1;align=center;verticalAlign=middle;resizable=0;points=[];autosize=1;strokeColor=none;fillColor=none;fontStyle=1;fontSize=34;" parent="1" vertex="1">
                    <mxGeometry x="335" y="888" width="710" height="50" as="geometry"/>
                </mxCell>
                <mxCell id="UTCIxJKsS2tkSXNgAGZ1-43" value="&lt;div&gt;&lt;br&gt;&lt;/div&gt;&lt;u&gt;Patient12&lt;/u&gt;" style="swimlane;fontStyle=1;align=center;verticalAlign=top;childLayout=stackLayout;horizontal=1;startSize=53;horizontalStack=0;resizeParent=1;resizeParentMax=0;resizeLast=0;collapsible=1;marginBottom=0;whiteSpace=wrap;html=1;" parent="1" vertex="1">
                    <mxGeometry x="150" y="1017" width="160" height="47" as="geometry"/>
                </mxCell>
                <mxCell id="UTCIxJKsS2tkSXNgAGZ1-44" value="&lt;div&gt;&lt;br&gt;&lt;/div&gt;&lt;u&gt;Generaliste1&lt;/u&gt;" style="swimlane;fontStyle=1;align=center;verticalAlign=top;childLayout=stackLayout;horizontal=1;startSize=53;horizontalStack=0;resizeParent=1;resizeParentMax=0;resizeLast=0;collapsible=1;marginBottom=0;whiteSpace=wrap;html=1;" parent="1" vertex="1">
                    <mxGeometry x="467" y="1017" width="160" height="43.5" as="geometry"/>
                </mxCell>
                <mxCell id="UTCIxJKsS2tkSXNgAGZ1-45" value="&lt;u&gt;Specialiste10&lt;/u&gt;" style="swimlane;fontStyle=1;align=center;verticalAlign=top;childLayout=stackLayout;horizontal=1;startSize=40;horizontalStack=0;resizeParent=1;resizeParentMax=0;resizeLast=0;collapsible=1;marginBottom=0;whiteSpace=wrap;html=1;" parent="1" vertex="1">
                    <mxGeometry x="800" y="1177" width="160" height="40" as="geometry"/>
                </mxCell>
                <mxCell id="UTCIxJKsS2tkSXNgAGZ1-46" value="&lt;u&gt;FIche_Maladie1&lt;/u&gt;" style="swimlane;fontStyle=1;align=center;verticalAlign=top;childLayout=stackLayout;horizontal=1;startSize=54;horizontalStack=0;resizeParent=1;resizeParentMax=0;resizeLast=0;collapsible=1;marginBottom=0;whiteSpace=wrap;html=1;" parent="1" vertex="1">
                    <mxGeometry x="790" y="1017" width="160" height="43.5" as="geometry"/>
                </mxCell>
                <mxCell id="UTCIxJKsS2tkSXNgAGZ1-47" value="&lt;u&gt;Medicament20&lt;/u&gt;" style="swimlane;fontStyle=1;align=center;verticalAlign=top;childLayout=stackLayout;horizontal=1;startSize=40;horizontalStack=0;resizeParent=1;resizeParentMax=0;resizeLast=0;collapsible=1;marginBottom=0;whiteSpace=wrap;html=1;" parent="1" vertex="1">
                    <mxGeometry x="1080" y="1018.75" width="160" height="40" as="geometry"/>
                </mxCell>
                <mxCell id="UTCIxJKsS2tkSXNgAGZ1-48" value="&lt;u&gt;Prescription2&lt;/u&gt;" style="swimlane;fontStyle=1;align=center;verticalAlign=top;childLayout=stackLayout;horizontal=1;startSize=40;horizontalStack=0;resizeParent=1;resizeParentMax=0;resizeLast=0;collapsible=1;marginBottom=0;whiteSpace=wrap;html=1;" parent="1" vertex="1">
                    <mxGeometry x="1080" y="1177" width="160" height="40" as="geometry"/>
                </mxCell>
                <mxCell id="UTCIxJKsS2tkSXNgAGZ1-49" value="&lt;div&gt;&lt;br&gt;&lt;/div&gt;&lt;u&gt;Consultation6&lt;/u&gt;" style="swimlane;fontStyle=1;align=center;verticalAlign=top;childLayout=stackLayout;horizontal=1;startSize=52;horizontalStack=0;resizeParent=1;resizeParentMax=0;resizeLast=0;collapsible=1;marginBottom=0;whiteSpace=wrap;html=1;" parent="1" vertex="1">
                    <mxGeometry x="467" y="1177" width="160" height="40" as="geometry"/>
                </mxCell>
                <mxCell id="UTCIxJKsS2tkSXNgAGZ1-50" value="" style="line;strokeWidth=1;fillColor=none;align=left;verticalAlign=middle;spacingTop=-1;spacingLeft=3;spacingRight=3;rotatable=0;labelPosition=right;points=[];portConstraint=eastwest;strokeColor=inherit;" parent="1" vertex="1">
                    <mxGeometry x="310" y="1030" width="157" height="8" as="geometry"/>
                </mxCell>
                <mxCell id="UTCIxJKsS2tkSXNgAGZ1-51" value="" style="endArrow=none;html=1;edgeStyle=orthogonalEdgeStyle;rounded=0;entryX=0.556;entryY=0;entryDx=0;entryDy=0;entryPerimeter=0;" parent="1" target="UTCIxJKsS2tkSXNgAGZ1-49" edge="1">
                    <mxGeometry relative="1" as="geometry">
                        <mxPoint x="556" y="1060.5" as="sourcePoint"/>
                        <mxPoint x="556" y="1157" as="targetPoint"/>
                    </mxGeometry>
                </mxCell>
                <mxCell id="UTCIxJKsS2tkSXNgAGZ1-52" value="" style="endArrow=none;html=1;edgeStyle=orthogonalEdgeStyle;rounded=0;" parent="1" edge="1">
                    <mxGeometry relative="1" as="geometry">
                        <mxPoint x="630" y="1201" as="sourcePoint"/>
                        <mxPoint x="798" y="1201" as="targetPoint"/>
                    </mxGeometry>
                </mxCell>
                <mxCell id="UTCIxJKsS2tkSXNgAGZ1-53" value="" style="endArrow=none;html=1;rounded=0;entryX=0.563;entryY=1.011;entryDx=0;entryDy=0;entryPerimeter=0;exitX=0.5;exitY=0;exitDx=0;exitDy=0;" parent="1" source="UTCIxJKsS2tkSXNgAGZ1-45" target="UTCIxJKsS2tkSXNgAGZ1-46" edge="1">
                    <mxGeometry width="50" height="50" relative="1" as="geometry">
                        <mxPoint x="1067" y="1304" as="sourcePoint"/>
                        <mxPoint x="870" y="1059.006" as="targetPoint"/>
                    </mxGeometry>
                </mxCell>
                <mxCell id="UTCIxJKsS2tkSXNgAGZ1-54" value="" style="endArrow=none;html=1;rounded=0;exitX=1;exitY=0.5;exitDx=0;exitDy=0;entryX=0;entryY=0.5;entryDx=0;entryDy=0;" parent="1" source="UTCIxJKsS2tkSXNgAGZ1-45" target="UTCIxJKsS2tkSXNgAGZ1-48" edge="1">
                    <mxGeometry width="50" height="50" relative="1" as="geometry">
                        <mxPoint x="930" y="1191.48" as="sourcePoint"/>
                        <mxPoint x="1090" y="1191" as="targetPoint"/>
                    </mxGeometry>
                </mxCell>
                <mxCell id="UTCIxJKsS2tkSXNgAGZ1-55" value="choisir" style="text;html=1;align=center;verticalAlign=middle;resizable=0;points=[];autosize=1;strokeColor=none;fillColor=none;" parent="1" vertex="1">
                    <mxGeometry x="358.5" y="1007.5" width="60" height="30" as="geometry"/>
                </mxCell>
                <mxCell id="UTCIxJKsS2tkSXNgAGZ1-56" value="prescrire" style="text;html=1;align=center;verticalAlign=middle;resizable=0;points=[];autosize=1;strokeColor=none;fillColor=none;" parent="1" vertex="1">
                    <mxGeometry x="548" y="1097" width="70" height="30" as="geometry"/>
                </mxCell>
                <mxCell id="UTCIxJKsS2tkSXNgAGZ1-57" value="effectuer" style="text;html=1;align=center;verticalAlign=middle;resizable=0;points=[];autosize=1;strokeColor=none;fillColor=none;" parent="1" vertex="1">
                    <mxGeometry x="673" y="1177" width="70" height="30" as="geometry"/>
                </mxCell>
                <mxCell id="UTCIxJKsS2tkSXNgAGZ1-58" value="enregistrer" style="text;html=1;align=center;verticalAlign=middle;resizable=0;points=[];autosize=1;strokeColor=none;fillColor=none;" parent="1" vertex="1">
                    <mxGeometry x="878" y="1097" width="80" height="30" as="geometry"/>
                </mxCell>
                <mxCell id="UTCIxJKsS2tkSXNgAGZ1-59" value="fournir" style="text;html=1;align=center;verticalAlign=middle;resizable=0;points=[];autosize=1;strokeColor=none;fillColor=none;" parent="1" vertex="1">
                    <mxGeometry x="980" y="1167" width="60" height="30" as="geometry"/>
                </mxCell>
                <mxCell id="UTCIxJKsS2tkSXNgAGZ1-60" value="" style="endArrow=diamondThin;endFill=0;endSize=24;html=1;rounded=0;entryX=0.5;entryY=0;entryDx=0;entryDy=0;exitX=0.5;exitY=1;exitDx=0;exitDy=0;" parent="1" source="UTCIxJKsS2tkSXNgAGZ1-47" target="UTCIxJKsS2tkSXNgAGZ1-48" edge="1">
                    <mxGeometry width="160" relative="1" as="geometry">
                        <mxPoint x="1206.96" y="1060.988" as="sourcePoint"/>
                        <mxPoint x="1347" y="1232" as="targetPoint"/>
                    </mxGeometry>
                </mxCell>
                <mxCell id="UTCIxJKsS2tkSXNgAGZ1-61" value="contenir" style="text;html=1;align=center;verticalAlign=middle;resizable=0;points=[];autosize=1;strokeColor=none;fillColor=none;" parent="1" vertex="1">
                    <mxGeometry x="1163" y="1097" width="70" height="30" as="geometry"/>
                </mxCell>
            </root>
        </mxGraphModel>
    </diagram>
</mxfile>